<svg width="197" height="42" viewBox="0 0 197 42" fill="none" xmlns="http://www.w3.org/2000/svg">
<path d="M0.5 11.4571L11.4571 0.5H109V30.5429L98.0429 41.5H0.5V11.4571Z" fill="#242021" stroke="#D91027"/>
<path d="M109.5 17.25H185.25L196.5 34.5" stroke="#D91027"/>
<path d="M157.5 17.25L185.25 17.25L192 27L189 26.25L184.5 19.5H159.75L157.5 17.25Z" fill="#D91026"/>
<path d="M38.8906 23.398C38.4799 23.566 38.0553 23.706 37.6166 23.818C37.1779 23.93 36.7299 24.014 36.2726 24.07C35.8246 24.126 35.3673 24.154 34.9006 24.154C33.7713 24.154 32.7773 23.93 31.9186 23.482C31.0693 23.0247 30.4066 22.39 29.9306 21.578C29.4546 20.766 29.2166 19.8233 29.2166 18.75C29.2166 17.9287 29.3566 17.182 29.6366 16.51C29.9166 15.838 30.3133 15.2547 30.8266 14.76C31.3493 14.2653 31.9653 13.8827 32.6746 13.612C33.3933 13.3413 34.1773 13.206 35.0266 13.206C35.4559 13.206 35.8806 13.2387 36.3006 13.304C36.7299 13.3693 37.1406 13.4673 37.5326 13.598C37.9339 13.7287 38.3073 13.8873 38.6526 14.074L38.3726 15.418C37.8686 15.1567 37.3179 14.9607 36.7206 14.83C36.1233 14.69 35.5213 14.62 34.9146 14.62C34.3079 14.62 33.7573 14.718 33.2626 14.914C32.7679 15.11 32.3386 15.39 31.9746 15.754C31.6199 16.118 31.3446 16.5473 31.1486 17.042C30.9619 17.5367 30.8686 18.0873 30.8686 18.694C30.8686 19.5247 31.0319 20.2433 31.3586 20.85C31.6946 21.4567 32.1706 21.928 32.7866 22.264C33.4026 22.5907 34.1306 22.754 34.9706 22.754C35.4093 22.754 35.8199 22.726 36.2026 22.67C36.5946 22.6047 36.9866 22.516 37.3786 22.404V18.848L38.1346 19.59H35.0266V18.302H38.8906V23.398ZM48.1597 24H46.7317L46.6897 22.166L46.8997 22.404C46.741 22.7867 46.5264 23.1133 46.2557 23.384C45.9944 23.6547 45.6817 23.86 45.3177 24C44.963 24.1493 44.5664 24.224 44.1277 24.224C43.493 24.224 42.9237 24.0653 42.4197 23.748C41.9157 23.4307 41.519 22.9873 41.2297 22.418C40.9497 21.8487 40.8097 21.2047 40.8097 20.486C40.8097 19.954 40.8984 19.464 41.0757 19.016C41.253 18.5587 41.4957 18.162 41.8037 17.826C42.121 17.4807 42.4897 17.21 42.9097 17.014C43.3297 16.818 43.7824 16.72 44.2677 16.72C44.6597 16.72 45.0237 16.7947 45.3597 16.944C45.705 17.084 46.0084 17.294 46.2697 17.574C46.5404 17.8447 46.7504 18.1713 46.8997 18.554L46.6897 18.778L46.7317 16.944H48.1597V24ZM44.5477 22.894C44.9864 22.894 45.369 22.796 45.6957 22.6C46.0317 22.3947 46.293 22.11 46.4797 21.746C46.6757 21.3727 46.7737 20.948 46.7737 20.472C46.7737 19.996 46.6757 19.576 46.4797 19.212C46.293 18.848 46.0317 18.5633 45.6957 18.358C45.369 18.1527 44.9864 18.05 44.5477 18.05C44.109 18.05 43.7217 18.1527 43.3857 18.358C43.0497 18.5633 42.7837 18.848 42.5877 19.212C42.401 19.576 42.3077 19.996 42.3077 20.472C42.3077 20.948 42.401 21.3727 42.5877 21.746C42.7837 22.11 43.0497 22.3947 43.3857 22.6C43.7217 22.796 44.109 22.894 44.5477 22.894ZM50.5139 12.66H51.9979V24H50.5139V12.66ZM54.342 12.66H55.826V24H54.342V12.66ZM58.1841 22.488C57.8668 21.928 57.7081 21.2653 57.7081 20.5C57.7081 19.94 57.7921 19.4313 57.9601 18.974C58.1375 18.5167 58.3848 18.12 58.7021 17.784C59.0195 17.448 59.3928 17.1867 59.8221 17C60.2608 16.8133 60.7368 16.72 61.2501 16.72C61.9035 16.72 62.4728 16.8693 62.9581 17.168C63.4435 17.4573 63.8215 17.8633 64.0921 18.386C64.3628 18.8993 64.4981 19.506 64.4981 20.206C64.4981 20.3273 64.4935 20.444 64.4841 20.556C64.4841 20.668 64.4748 20.78 64.4561 20.892H58.6461L58.6601 19.87H63.7141L63.0841 20.388C63.0935 20.2387 63.0935 20.0987 63.0841 19.968C63.0841 19.828 63.0748 19.6973 63.0561 19.576C63.0095 19.212 62.9021 18.9087 62.7341 18.666C62.5755 18.414 62.3655 18.2227 62.1041 18.092C61.8428 17.9613 61.5348 17.896 61.1801 17.896C60.7601 17.896 60.3961 17.9987 60.0881 18.204C59.7895 18.4 59.5561 18.6893 59.3881 19.072C59.2201 19.4547 59.1361 19.9073 59.1361 20.43C59.1455 20.99 59.2528 21.4613 59.4581 21.844C59.6728 22.2173 59.9761 22.502 60.3681 22.698C60.7601 22.8847 61.2408 22.978 61.8101 22.978C62.2115 22.978 62.6175 22.9313 63.0281 22.838C63.4388 22.7447 63.8261 22.6093 64.1901 22.432L64.3581 23.608C64.0221 23.804 63.6161 23.9533 63.1401 24.056C62.6735 24.168 62.1928 24.224 61.6981 24.224C60.8768 24.224 60.1675 24.0747 59.5701 23.776C58.9728 23.4773 58.5108 23.048 58.1841 22.488ZM66.51 16.944H67.924L67.938 19.058L67.77 18.918C67.91 18.2647 68.1807 17.756 68.582 17.392C68.9833 17.028 69.4547 16.846 69.996 16.846C70.136 16.846 70.2853 16.86 70.444 16.888C70.6027 16.916 70.7287 16.9533 70.822 17L70.682 18.4C70.5607 18.3533 70.4207 18.3113 70.262 18.274C70.1033 18.2367 69.954 18.218 69.814 18.218C69.4313 18.218 69.1047 18.316 68.834 18.512C68.5633 18.6987 68.3533 18.974 68.204 19.338C68.064 19.6927 67.994 20.122 67.994 20.626V24H66.51V16.944ZM74.4657 27.43H72.9537L75.0117 23.16L75.5157 22.208L77.6997 16.944H79.2677L74.4657 27.43ZM71.8477 16.944H73.4717L75.9917 22.768L74.9837 23.748L71.8477 16.944Z" fill="white"/>
</svg>
