<svg width="268" height="20" viewBox="0 0 268 20" fill="none" xmlns="http://www.w3.org/2000/svg">
<path d="M0.68 0.759999H6.56V19H0.68V0.759999ZM9.91438 0.759999H14.8344L24.6504 14.08H21.9384V0.759999H27.2424V19H22.3224L12.5064 5.704H15.2184V19H9.91438V0.759999ZM30.6097 0.759999H38.1457C40.4657 0.759999 42.4097 1.112 43.9777 1.816C45.5617 2.504 46.7537 3.528 47.5537 4.888C48.3697 6.232 48.7777 7.896 48.7777 9.88C48.7777 11.32 48.5377 12.608 48.0577 13.744C47.5777 14.864 46.8737 15.816 45.9457 16.6C45.0337 17.384 43.9217 17.984 42.6097 18.4C41.2977 18.8 39.8097 19 38.1457 19H30.6097V0.759999ZM33.3697 14.44H37.8817C38.9697 14.44 39.8737 14.272 40.5937 13.936C41.3137 13.6 41.8497 13.096 42.2017 12.424C42.5697 11.736 42.7537 10.888 42.7537 9.88C42.7537 8.36 42.3457 7.224 41.5297 6.472C40.7137 5.704 39.4977 5.32 37.8817 5.32H33.3697L36.3697 0.999999V18.76L33.3697 14.44ZM51.4222 0.759999H57.3022V19H51.4222V0.759999ZM66.4886 0.759999H72.4886L79.5446 19H73.4246L68.6486 3.4H69.9686L65.1926 19H59.4566L66.4886 0.759999ZM64.7846 10.912H73.8086L75.1286 15.232H63.4646L64.7846 10.912Z" fill="#D02129"/>
<path d="M86.7425 0.759999H92.6225V19H86.7425V0.759999ZM95.9769 0.759999H100.897L110.713 14.08H108.001V0.759999H113.305V19H108.385L98.5689 5.704H101.281V19H95.9769V0.759999ZM121.184 5.44H115.832V0.759999H132.416V5.44H127.064V19H121.184V5.44ZM134.93 0.759999H148.154V5.104H137.69L140.21 0.999999V18.76L137.69 14.656H148.49V19H134.93V0.759999ZM137.33 7.648H147.17V11.992H137.33V7.648ZM151.36 0.759999H158.512C160.096 0.759999 161.44 1.016 162.544 1.528C163.664 2.04 164.512 2.776 165.088 3.736C165.68 4.696 165.976 5.864 165.976 7.24C165.976 8.168 165.768 9.032 165.352 9.832C164.952 10.616 164.416 11.296 163.744 11.872C163.088 12.432 162.36 12.872 161.56 13.192C160.776 13.512 160 13.672 159.232 13.672H153.76V9.496H157.744C158.352 9.496 158.848 9.416 159.232 9.256C159.616 9.08 159.904 8.824 160.096 8.488C160.288 8.136 160.384 7.704 160.384 7.192C160.384 6.408 160.176 5.84 159.76 5.488C159.344 5.12 158.672 4.936 157.744 4.936H153.904L156.904 0.999999V19H151.36V0.759999ZM157.408 10.984H162.88L167.728 19H161.416L157.408 10.984ZM175.356 0.759999H181.356L188.412 19H182.292L177.516 3.4H178.836L174.06 19H168.324L175.356 0.759999ZM173.652 10.912H182.676L183.996 15.232H172.332L173.652 10.912ZM189.258 6.112C189.754 4.96 190.45 3.968 191.346 3.136C192.258 2.288 193.33 1.64 194.562 1.192C195.794 0.727999 197.154 0.495999 198.642 0.495999C199.362 0.495999 200.082 0.551999 200.802 0.663999C201.522 0.775999 202.194 0.935999 202.818 1.144C203.458 1.352 204.018 1.6 204.498 1.888L203.586 6.664C202.946 6.344 202.218 6.088 201.402 5.896C200.586 5.704 199.834 5.608 199.146 5.608C198.426 5.608 197.778 5.704 197.202 5.896C196.642 6.088 196.162 6.376 195.762 6.76C195.378 7.128 195.082 7.576 194.874 8.104C194.666 8.632 194.562 9.232 194.562 9.904C194.562 10.784 194.746 11.544 195.114 12.184C195.482 12.808 196.01 13.296 196.698 13.648C197.386 13.984 198.202 14.152 199.146 14.152C199.882 14.152 200.698 14.016 201.594 13.744C202.506 13.472 203.314 13.128 204.018 12.712L204.642 17.752C204.194 18.04 203.634 18.304 202.962 18.544C202.306 18.768 201.594 18.944 200.826 19.072C200.074 19.2 199.322 19.264 198.57 19.264C196.986 19.264 195.57 19.056 194.322 18.64C193.09 18.224 192.042 17.616 191.178 16.816C190.314 16 189.658 15.016 189.21 13.864C188.762 12.696 188.538 11.376 188.538 9.904C188.538 8.512 188.778 7.248 189.258 6.112ZM211.911 5.44H206.559V0.759999H223.143V5.44H217.791V19H211.911V5.44ZM225.657 0.759999H231.537V19H225.657V0.759999ZM233.331 0.759999H239.811L243.987 15.928H242.115L246.267 0.759999H252.627L245.931 19H240.027L233.331 0.759999ZM254.438 0.759999H267.662V5.104H257.198L259.718 0.999999V18.76L257.198 14.656H267.998V19H254.438V0.759999ZM256.838 7.648H266.678V11.992H256.838V7.648Z" fill="black"/>
</svg>
