<svg width="265" height="20" viewBox="0 0 265 20" fill="none" xmlns="http://www.w3.org/2000/svg">
<path d="M0.68 0.759999H6.56V19H0.68V0.759999ZM9.91438 0.759999H14.8344L24.6504 14.08H21.9384V0.759999H27.2424V19H22.3224L12.5064 5.704H15.2184V19H9.91438V0.759999ZM30.6097 0.759999H38.1457C40.4657 0.759999 42.4097 1.112 43.9777 1.816C45.5617 2.504 46.7537 3.528 47.5537 4.888C48.3697 6.232 48.7777 7.896 48.7777 9.88C48.7777 11.32 48.5377 12.608 48.0577 13.744C47.5777 14.864 46.8737 15.816 45.9457 16.6C45.0337 17.384 43.9217 17.984 42.6097 18.4C41.2977 18.8 39.8097 19 38.1457 19H30.6097V0.759999ZM33.3697 14.44H37.8817C38.9697 14.44 39.8737 14.272 40.5937 13.936C41.3137 13.6 41.8497 13.096 42.2017 12.424C42.5697 11.736 42.7537 10.888 42.7537 9.88C42.7537 8.36 42.3457 7.224 41.5297 6.472C40.7137 5.704 39.4977 5.32 37.8817 5.32H33.3697L36.3697 0.999999V18.76L33.3697 14.44ZM51.4222 0.759999H57.3022V19H51.4222V0.759999ZM66.4886 0.759999H72.4886L79.5446 19H73.4246L68.6486 3.4H69.9686L65.1926 19H59.4566L66.4886 0.759999ZM64.7846 10.912H73.8086L75.1286 15.232H63.4646L64.7846 10.912Z" fill="#D02129"/>
<path d="M86.7425 0.759999H92.6225V19H86.7425V0.759999ZM95.9769 0.759999H100.897L110.713 14.08H108.001V0.759999H113.305V19H108.385L98.5689 5.704H101.281V19H95.9769V0.759999ZM121.184 5.44H115.832V0.759999H132.416V5.44H127.064V19H121.184V5.44ZM134.93 0.759999H148.154V5.104H137.69L140.21 0.999999V18.76L137.69 14.656H148.49V19H134.93V0.759999ZM137.33 7.648H147.17V11.992H137.33V7.648ZM151.36 0.759999H158.512C160.096 0.759999 161.44 1.016 162.544 1.528C163.664 2.04 164.512 2.776 165.088 3.736C165.68 4.696 165.976 5.864 165.976 7.24C165.976 8.168 165.768 9.032 165.352 9.832C164.952 10.616 164.416 11.296 163.744 11.872C163.088 12.432 162.36 12.872 161.56 13.192C160.776 13.512 160 13.672 159.232 13.672H153.76V9.496H157.744C158.352 9.496 158.848 9.416 159.232 9.256C159.616 9.08 159.904 8.824 160.096 8.488C160.288 8.136 160.384 7.704 160.384 7.192C160.384 6.408 160.176 5.84 159.76 5.488C159.344 5.12 158.672 4.936 157.744 4.936H153.904L156.904 0.999999V19H151.36V0.759999ZM157.408 10.984H162.88L167.728 19H161.416L157.408 10.984ZM169.758 0.759999H182.982V5.104H172.518L175.038 0.999999V18.76L172.518 14.656H183.318V19H169.758V0.759999ZM172.158 7.648H181.998V11.992H172.158V7.648ZM185.836 6.112C186.332 4.96 187.028 3.968 187.924 3.136C188.836 2.288 189.908 1.64 191.14 1.192C192.372 0.727999 193.732 0.495999 195.22 0.495999C195.94 0.495999 196.66 0.551999 197.38 0.663999C198.1 0.775999 198.772 0.935999 199.396 1.144C200.036 1.352 200.596 1.6 201.076 1.888L200.164 6.664C199.524 6.344 198.796 6.088 197.98 5.896C197.164 5.704 196.412 5.608 195.724 5.608C195.004 5.608 194.356 5.704 193.78 5.896C193.22 6.088 192.74 6.376 192.34 6.76C191.956 7.128 191.66 7.576 191.452 8.104C191.244 8.632 191.14 9.232 191.14 9.904C191.14 10.784 191.324 11.544 191.692 12.184C192.06 12.808 192.588 13.296 193.276 13.648C193.964 13.984 194.78 14.152 195.724 14.152C196.46 14.152 197.276 14.016 198.172 13.744C199.084 13.472 199.892 13.128 200.596 12.712L201.22 17.752C200.772 18.04 200.212 18.304 199.54 18.544C198.884 18.768 198.172 18.944 197.404 19.072C196.652 19.2 195.9 19.264 195.148 19.264C193.564 19.264 192.148 19.056 190.9 18.64C189.668 18.224 188.62 17.616 187.756 16.816C186.892 16 186.236 15.016 185.788 13.864C185.34 12.696 185.116 11.376 185.116 9.904C185.116 8.512 185.356 7.248 185.836 6.112ZM208.489 5.44H203.137V0.759999H219.721V5.44H214.369V19H208.489V5.44ZM222.235 0.759999H228.115V19H222.235V0.759999ZM229.909 0.759999H236.389L240.565 15.928H238.693L242.845 0.759999H249.205L242.509 19H236.605L229.909 0.759999ZM251.016 0.759999H264.24V5.104H253.776L256.296 0.999999V18.76L253.776 14.656H264.576V19H251.016V0.759999ZM253.416 7.648H263.256V11.992H253.416V7.648Z" fill="black"/>
</svg>
